<svg xmlns="http://www.w3.org/2000/svg" xmlns:xlink="http://www.w3.org/1999/xlink" viewBox="0 0 164 175">
  <defs>
    <style>
      .cls-1 {
        fill: #006ee5;
      }

      .cls-2 {
        fill: #fff;
      }

      .cls-3 {
        clip-path: url(#clip-path);
      }

      .cls-4, .cls-5 {
        fill: none;
      }

      .cls-4 {
        stroke: #006ee5;
        stroke-miterlimit: 10;
      }

      .cls-6 {
        filter: url(#Rectangle_63);
      }
    </style>
    <filter id="Rectangle_63" x="9.945" y="23.973" width="145" height="141" filterUnits="userSpaceOnUse">
      <feOffset dy="6" input="SourceAlpha"/>
      <feGaussianBlur stdDeviation="3" result="blur"/>
      <feFlood flood-opacity="0.161"/>
      <feComposite operator="in" in2="blur"/>
      <feComposite in="SourceGraphic"/>
    </filter>
    <clipPath id="clip-path">
      <rect id="Rectangle_64" data-name="Rectangle 64" class="cls-1" width="67.789" height="49.667"/>
    </clipPath>
  </defs>
  <g id="Group_2107" data-name="Group 2107" transform="translate(-250 -2721)">
    <g id="Group_1047" data-name="Group 1047" transform="translate(282.945 2761.368)">
      <g id="Group_1041" data-name="Group 1041" transform="translate(-14 -13.394)">
        <g id="Group_749" data-name="Group 749" transform="translate(0)">
          <g class="cls-6" transform="matrix(1, 0, 0, 1, -18.95, -26.97)">
            <rect id="Rectangle_63-2" data-name="Rectangle 63" class="cls-2" width="127" height="123" rx="61.5" transform="translate(18.95 26.97)"/>
          </g>
        </g>
      </g>
      <g id="Group_2108" data-name="Group 2108" transform="translate(15.312 19.978)">
        <g id="Group_756" data-name="Group 756" transform="translate(0)">
          <g id="Group_755" data-name="Group 755" transform="translate(0)">
            <g id="Group_754" data-name="Group 754" class="cls-3">
              <path id="Path_647" data-name="Path 647" class="cls-1" d="M66.668,40.637h-2.26V5.644A5.649,5.649,0,0,0,58.758,0H9.04A5.649,5.649,0,0,0,3.39,5.644V40.637H1.13A1.13,1.13,0,0,0,0,41.765v3.386a4.519,4.519,0,0,0,4.52,4.515H63.278a4.519,4.519,0,0,0,4.52-4.515V41.765a1.13,1.13,0,0,0-1.13-1.129ZM5.65,5.644A3.389,3.389,0,0,1,9.04,2.258H58.758a3.389,3.389,0,0,1,3.39,3.386V40.637h-2.26V5.644a1.13,1.13,0,0,0-1.13-1.129H9.04A1.13,1.13,0,0,0,7.91,5.644V40.637H5.65ZM57.629,40.637H40.815a3.175,3.175,0,0,0-2.848,1.752.915.915,0,0,1-.814.506H30.645a.9.9,0,0,1-.814-.506,3.167,3.167,0,0,0-2.838-1.752H10.179V6.773H57.638V40.637Zm7.91,4.515a2.26,2.26,0,0,1-2.26,2.258H4.52a2.26,2.26,0,0,1-2.26-2.258V42.894H26.984a.9.9,0,0,1,.814.506,3.167,3.167,0,0,0,2.838,1.752h6.509A3.175,3.175,0,0,0,39.992,43.4a.915.915,0,0,1,.814-.506H65.538Zm0,0" transform="translate(-0.009 0)"/>
            </g>
          </g>
        </g>
        <g id="Group_757" data-name="Group 757" transform="translate(13.325 14.593)">
          <path id="Path_648" data-name="Path 648" class="cls-1" d="M156.965,258.428H148.54a1.039,1.039,0,0,1-1.04-1.039v-1.951a1.039,1.039,0,0,1,1.04-1.039h8.425a1.039,1.039,0,0,1,1.04,1.039v1.951A1.034,1.034,0,0,1,156.965,258.428Z" transform="translate(-147.5 -246.02)"/>
          <path id="Path_649" data-name="Path 649" class="cls-4" d="M326.465,258.428H318.04a1.039,1.039,0,0,1-1.04-1.039v-1.951a1.039,1.039,0,0,1,1.04-1.039h8.425a1.039,1.039,0,0,1,1.04,1.039v1.951A1.033,1.033,0,0,1,326.465,258.428Z" transform="translate(-301.678 -246.02)"/>
          <path id="Path_650" data-name="Path 650" class="cls-4" d="M326.465,165.628H318.04a1.039,1.039,0,0,1-1.04-1.038v-1.951a1.039,1.039,0,0,1,1.04-1.038h8.425a1.039,1.039,0,0,1,1.04,1.038v1.951A1.033,1.033,0,0,1,326.465,165.628Z" transform="translate(-301.678 -161.6)"/>
          <path id="Path_651" data-name="Path 651" class="cls-1" d="M326.465,347.827H318.04a1.039,1.039,0,0,1-1.04-1.039v-1.951a1.039,1.039,0,0,1,1.04-1.038h8.425a1.039,1.039,0,0,1,1.04,1.038v1.951A1.039,1.039,0,0,1,326.465,347.827Z" transform="translate(-301.678 -327.347)"/>
          <path id="Path_652" data-name="Path 652" class="cls-4" d="M495.965,258.428H487.54a1.039,1.039,0,0,1-1.04-1.039v-1.951a1.039,1.039,0,0,1,1.04-1.039h8.425a1.039,1.039,0,0,1,1.04,1.039v1.951A1.033,1.033,0,0,1,495.965,258.428Z" transform="translate(-455.855 -246.02)"/>
          <line id="Line_4" data-name="Line 4" class="cls-4" x2="4.818" transform="translate(25.827 10.394)"/>
          <line id="Line_5" data-name="Line 5" class="cls-4" x2="9.754" transform="translate(5.605 10.394)"/>
          <path id="Path_653" data-name="Path 653" class="cls-4" d="M290.7,192.28v-7.531a.848.848,0,0,1,.85-.849h1.528" transform="translate(-277.755 -181.886)"/>
          <path id="Path_654" data-name="Path 654" class="cls-4" d="M290.7,273.9v7.531a.848.848,0,0,0,.85.849h1.528" transform="translate(-277.755 -263.759)"/>
        </g>
      </g>
    </g>
    <rect id="Rectangle_228" data-name="Rectangle 228" class="cls-5" width="164" height="175" transform="translate(250 2721)"/>
  </g>
</svg>
