<svg xmlns="http://www.w3.org/2000/svg" xmlns:xlink="http://www.w3.org/1999/xlink" viewBox="0 0 164 175">
  <defs>
    <style>
      .cls-1 {
        fill: #fff;
      }

      .cls-2, .cls-3 {
        fill: #006ee5;
      }

      .cls-2 {
        stroke: #006ee5;
        stroke-width: 0.3px;
      }

      .cls-4 {
        fill: none;
      }

      .cls-5 {
        filter: url(#Rectangle_63);
      }
    </style>
    <filter id="Rectangle_63" x="9.043" y="23.281" width="145" height="141" filterUnits="userSpaceOnUse">
      <feOffset dy="6" input="SourceAlpha"/>
      <feGaussianBlur stdDeviation="3" result="blur"/>
      <feFlood flood-opacity="0.161"/>
      <feComposite operator="in" in2="blur"/>
      <feComposite in="SourceGraphic"/>
    </filter>
  </defs>
  <g id="Group_2114" data-name="Group 2114" transform="translate(-250 -2721)">
    <g id="Group_1047" data-name="Group 1047" transform="translate(282.043 2760.676)">
      <g id="Group_1041" data-name="Group 1041" transform="translate(-14 -13.394)">
        <g id="Group_749" data-name="Group 749" transform="translate(0)">
          <g class="cls-5" transform="matrix(1, 0, 0, 1, -18.04, -26.28)">
            <rect id="Rectangle_63-2" data-name="Rectangle 63" class="cls-1" width="127" height="123" rx="61.5" transform="translate(18.04 26.28)"/>
          </g>
        </g>
      </g>
      <g id="Group_2115" data-name="Group 2115" transform="translate(18.859 19.335)">
        <path id="Path_663" data-name="Path 663" class="cls-2" d="M57.789,0h-54A3.8,3.8,0,0,0,0,3.785V46.159a3.794,3.794,0,0,0,3.788,3.785h9.646a.9.9,0,1,0,0-1.8H3.788A1.985,1.985,0,0,1,1.8,46.159V11.438h57.97V46.171a1.985,1.985,0,0,1-1.984,1.982H48.144a.9.9,0,1,0,0,1.8h9.646a3.794,3.794,0,0,0,3.788-3.785V3.785A3.8,3.8,0,0,0,57.789,0ZM1.8,9.636V3.785A1.985,1.985,0,0,1,3.788,1.8H57.777a1.985,1.985,0,0,1,1.984,1.982V9.624L1.8,9.636Z"/>
        <path id="Path_664" data-name="Path 664" class="cls-2" d="M33,40.1h0a.9.9,0,1,0,.9.9A.9.9,0,0,0,33,40.1Z" transform="translate(-28.239 -35.282)"/>
        <path id="Path_665" data-name="Path 665" class="cls-2" d="M81.1,40.1h0a.9.9,0,1,0,.9.9A.9.9,0,0,0,81.1,40.1Z" transform="translate(-70.554 -35.282)"/>
        <path id="Path_666" data-name="Path 666" class="cls-2" d="M57,40.1h0a.9.9,0,1,0,.9.9A.9.9,0,0,0,57,40.1Z" transform="translate(-49.353 -35.282)"/>
        <path id="Path_667" data-name="Path 667" class="cls-2" d="M155.521,40.1H113.1a.9.9,0,1,0,0,1.8h42.419a.908.908,0,0,0,.9-.9A.893.893,0,0,0,155.521,40.1Z" transform="translate(-98.706 -35.282)"/>
        <path id="Path_668" data-name="Path 668" class="cls-2" d="M162.206,144.684V139.7a11.51,11.51,0,0,0-23.02,0v4.986a3.788,3.788,0,0,0-2.886,3.676v8.662a14.4,14.4,0,0,0,28.792,0V148.36A3.8,3.8,0,0,0,162.206,144.684Zm-11.51-14.67a9.711,9.711,0,0,1,9.706,9.7v4.878h-2.057V139.71a7.649,7.649,0,0,0-15.3,0v4.878H140.99V139.71A9.7,9.7,0,0,1,150.7,130.014Zm12.592,27.02a12.592,12.592,0,0,1-25.184,0v-8.662a1.985,1.985,0,0,1,1.984-1.982h21.57a.9.9,0,1,0,0-1.8H144.851V139.71a5.845,5.845,0,0,1,11.69,0v4.878h-1.022a.9.9,0,1,0,0,1.8H161.3a1.985,1.985,0,0,1,1.984,1.982v8.662Z" transform="translate(-119.907 -112.798)"/>
        <path id="Path_669" data-name="Path 669" class="cls-2" d="M228.288,328.7a3.785,3.785,0,0,0-.9,7.461v3.064a.9.9,0,0,0,1.8,0v-3.064a3.785,3.785,0,0,0-.9-7.461Zm0,5.779a1.982,1.982,0,1,1,1.984-1.982A1.985,1.985,0,0,1,228.288,334.479Z" transform="translate(-197.5 -289.209)"/>
      </g>
      <circle id="Ellipse_3936" data-name="Ellipse 3936" class="cls-3" cx="2.5" cy="2.5" r="2.5" transform="translate(46.957 60.324)"/>
    </g>
    <rect id="Rectangle_228" data-name="Rectangle 228" class="cls-4" width="164" height="175" transform="translate(250 2721)"/>
  </g>
</svg>
