<?xml version="1.0" encoding="utf-8"?>
<!-- Generator: Adobe Illustrator 22.1.0, SVG Export Plug-In . SVG Version: 6.00 Build 0)  -->
<svg version="1.1" id="Layer_1" xmlns="http://www.w3.org/2000/svg" xmlns:xlink="http://www.w3.org/1999/xlink" x="0px" y="0px"
	 viewBox="0 0 1024 579.4" style="enable-background:new 0 0 1024 579.4;" xml:space="preserve">
<style type="text/css">
	.st0{fill:#FFFFFF;}
</style>
<g>
	<g>
		<path class="st0" d="M99.1,0C44.6,0,0,44.6,0,99.1v381.2c0,54.5,44.6,99.1,99.1,99.1s99.1-44.6,99.1-99.1V99.1
			C198.3,44.6,153.7,0,99.1,0z M198.3,480.3c0,13.6-2.8,26.7-7.8,38.5l-47.6-47.6H77.8l32.5-32.5c-39.8-40-39.7-104.7,0.2-144.6
			l87.7-87.7V480.3z"/>
		<path class="st0" d="M365.9,458.6L338.3,431c-35.2-35.2-35.2-92.2,0-127.4l14.6-14.6c25.5-25.5,25.5-66.9,0-92.4
			c-40-40-104.9-40-144.9,0l-9.8,9.8v273.9c0,13.6-2.8,26.7-7.8,38.5l30.6,30.6c40,40,104.9,40,144.9,0
			C391,524.4,391,483.7,365.9,458.6z"/>
	</g>
	<g>
		<path class="st0" d="M467.2,318.2c0-2.4,1.3-3.6,3.6-3.6h1.9c2.4,0,3.6,1.3,3.6,3.6v63.2h27.9l41.4-64.5c1.1-1.7,2.4-2.4,4.3-2.4
			h3c3,0,4.1,1.9,2.6,4.5l-43.3,66.2v0.4l46.3,74.6c1.7,2.4,0.6,4.3-2.4,4.3h-3.2c-1.9,0-3.2-0.6-4.3-2.4l-44.4-72.3h-27.9v71
			c0,2.4-1.3,3.6-3.6,3.6h-1.9c-2.4,0-3.6-1.3-3.6-3.6L467.2,318.2L467.2,318.2z"/>
		<path class="st0" d="M640.2,399.3h7.1v-3.6c0-23.8-12.2-32-29.4-32c-13.1,0-22.9,5.2-27.7,8.2c-1.9,1.3-3.6,1.1-5.2-0.9l-0.9-1.3
			c-1.5-1.9-1.3-3.9,0.6-5.2c4.9-3.4,16.5-9.6,33.4-9.6c24.7,0,37.9,13.7,37.9,40.5V461c0,2.4-1.3,3.6-3.6,3.6h-1.7
			c-2.4,0-3.6-1.3-3.6-3.6v-10.5c0-5.8,0.9-9.6,0.9-9.6h-0.4c0.2,0-9.6,26.4-37.5,26.4c-17.4,0-36.4-9.6-36.4-31.1
			C573.7,399.7,621.1,399.3,640.2,399.3z M610.6,458.9c23.4,0,36.7-24.2,36.7-45.5v-5.8h-6.9c-18.2,0-57.2,0-57.2,27.9
			C583.2,446.9,592.4,458.9,610.6,458.9z"/>
		<path class="st0" d="M693,366.3h-10.5c-2.4,0-3.6-1.3-3.6-3.6v-0.9c0-2.4,1.3-3.6,3.6-3.6H693v-26.8c0-2.4,1.3-3.6,3.6-3.6h1.7
			c2.4,0,3.6,1.3,3.6,3.6v26.8h24.4c2.4,0,3.6,1.3,3.6,3.6v0.9c0,2.4-1.3,3.6-3.6,3.6H702v59c0,28.7,17.4,31.5,26.2,31.9
			c3.2,0.2,4.3,1.3,4.3,3.6v1.1c0,2.1-0.9,3.6-3.6,3.6c-25.3,0-35.8-16.1-35.8-39.7L693,366.3L693,366.3z"/>
		<path class="st0" d="M810.9,399.3h7.1v-3.6c0-23.8-12.2-32-29.4-32c-13.1,0-22.9,5.2-27.7,8.2c-1.9,1.3-3.6,1.1-5.2-0.9l-0.9-1.3
			c-1.5-1.9-1.3-3.9,0.6-5.2c4.9-3.4,16.5-9.6,33.4-9.6c24.7,0,37.9,13.7,37.9,40.5V461c0,2.4-1.3,3.6-3.6,3.6h-1.7
			c-2.4,0-3.6-1.3-3.6-3.6v-10.5c0-5.8,0.9-9.6,0.9-9.6h-0.4c0.2,0-9.6,26.4-37.5,26.4c-17.4,0-36.4-9.6-36.4-31.1
			C744.4,399.7,791.8,399.3,810.9,399.3z M781.3,458.9c23.4,0,36.7-24.2,36.7-45.5v-5.8h-6.9c-18.2,0-57.2,0-57.2,27.9
			C753.8,446.9,763.1,458.9,781.3,458.9z"/>
		<path class="st0" d="M859.5,454.8c0-2.4,1.3-3.6,3.6-3.6h5.8c2.4,0,3.6,1.3,3.6,3.6v6.2c0,2.4-1.3,3.6-3.6,3.6h-5.8
			c-2.4,0-3.6-1.3-3.6-3.6V454.8z"/>
		<path class="st0" d="M963.5,399.3h7.1v-3.6c0-23.8-12.2-32-29.4-32c-13.1,0-22.9,5.2-27.7,8.2c-1.9,1.3-3.6,1.1-5.2-0.9l-0.9-1.3
			c-1.5-1.9-1.3-3.9,0.6-5.2c4.9-3.4,16.5-9.6,33.4-9.6c24.7,0,37.9,13.7,37.9,40.5V461c0,2.4-1.3,3.6-3.6,3.6h-1.7
			c-2.4,0-3.6-1.3-3.6-3.6v-10.5c0-5.8,0.9-9.6,0.9-9.6H971c0.2,0-9.6,26.4-37.5,26.4c-17.4,0-36.4-9.6-36.4-31.1
			C897.1,399.7,944.4,399.3,963.5,399.3z M934,458.9c23.4,0,36.7-24.2,36.7-45.5v-5.8h-6.9c-18.2,0-57.2,0-57.2,27.9
			C906.5,446.9,915.7,458.9,934,458.9z"/>
		<path class="st0" d="M1013.3,326.6v-8.4c0-2.4,1.3-3.6,3.6-3.6h3.4c2.4,0,3.6,1.3,3.6,3.6v8.4c0,2.4-1.3,3.6-3.6,3.6h-3.4
			C1014.6,330.2,1013.3,329,1013.3,326.6z M1014.1,361.1c0-2.4,1.3-3.6,3.6-3.6h1.7c2.4,0,3.6,1.3,3.6,3.6V461
			c0,2.4-1.3,3.6-3.6,3.6h-1.7c-2.4,0-3.6-1.3-3.6-3.6V361.1z"/>
	</g>
</g>
</svg>
