<svg xmlns="http://www.w3.org/2000/svg" xmlns:xlink="http://www.w3.org/1999/xlink" viewBox="0 0 261 268.488">
  <defs>
    <style>
      .cls-1 {
        fill: #006ee5;
      }

      .cls-2 {
        fill: #fff;
      }

      .cls-3 {
        clip-path: url(#clip-path);
      }

      .cls-4 {
        fill: #021447;
        opacity: 0.2;
      }

      .cls-5 {
        fill: #bae2f8;
      }

      .cls-6 {
        fill: #fbb040;
      }

      .cls-7 {
        fill: #1d6dcb;
      }

      .cls-8 {
        clip-path: url(#clip-path-2);
      }

      .cls-9 {
        fill: #0044a9;
      }

      .cls-10 {
        fill: none;
      }
    </style>
    <clipPath id="clip-path">
      <ellipse id="Ellipse_33" data-name="Ellipse 33" cx="89.915" cy="89.915" rx="89.915" ry="89.915"/>
    </clipPath>
    <clipPath id="clip-path-2">
      <rect id="Rectangle_38" data-name="Rectangle 38" width="178.301" height="173.437"/>
    </clipPath>
  </defs>
  <g id="Group_2119" data-name="Group 2119" transform="translate(-735 -3794.756)">
    <g id="Group_2118" data-name="Group 2118">
      <g id="Group_512" data-name="Group 512" transform="translate(769.001 3840.067)">
        <ellipse id="Ellipse_32" data-name="Ellipse 32" class="cls-1" cx="89.915" cy="89.915" rx="89.915" ry="89.915" transform="translate(6.393 6.393)"/>
        <path id="Path_416" data-name="Path 416" class="cls-2" d="M603.907,26.793a89.915,89.915,0,1,1-89.915,89.915,89.884,89.884,0,0,1,89.915-89.915m0-6.393a96.307,96.307,0,1,0,96.307,96.307A96.438,96.438,0,0,0,603.907,20.4Z" transform="translate(-507.6 -20.4)"/>
      </g>
      <g id="Group_532" data-name="Group 532" transform="translate(775.394 3846.459)">
        <g id="Group_531" data-name="Group 531" class="cls-3">
          <path id="Path_417" data-name="Path 417" class="cls-4" d="M642.691,56.98V29.88a13.493,13.493,0,0,0-13.48-13.48H550.97a13.493,13.493,0,0,0-13.48,13.48V41.971a2.433,2.433,0,0,0-1.39,2.085v3.891a2.276,2.276,0,0,0,1.39,2.085V63.094A6.133,6.133,0,0,0,536.1,67.4v7.782a6.133,6.133,0,0,0,1.39,4.308V83.94a6.133,6.133,0,0,0-1.39,4.308v7.782a6.133,6.133,0,0,0,1.39,4.308V214.574a13.493,13.493,0,0,0,13.48,13.48h78.241a13.493,13.493,0,0,0,13.48-13.48V73.934c.973-.556,1.807-2.363,1.807-4.586V61.566C644.5,59.342,643.664,57.536,642.691,56.98Z" transform="translate(-502.886 -28.352)"/>
          <g id="Group_530" data-name="Group 530" transform="translate(11.535 -11.952)">
            <g id="Group_516" data-name="Group 516" transform="translate(25.154)">
              <g id="Group_515" data-name="Group 515">
                <g id="Group_514" data-name="Group 514">
                  <g id="Group_513" data-name="Group 513" transform="translate(0 25.432)">
                    <path id="Path_418" data-name="Path 418" class="cls-2" d="M543.325,40.954a2.435,2.435,0,0,1-2.363,2.363h0a2.342,2.342,0,0,1-2.363-2.363V37.063a2.342,2.342,0,0,1,2.363-2.363h0a2.435,2.435,0,0,1,2.363,2.363Z" transform="translate(-538.6 -34.7)"/>
                    <path id="Path_419" data-name="Path 419" class="cls-2" d="M543.325,62.207c0,2.64-1.112,4.725-2.363,4.725h0c-1.39,0-2.363-2.085-2.363-4.725V54.425c0-2.64,1.112-4.725,2.363-4.725h0c1.251,0,2.363,2.085,2.363,4.725Z" transform="translate(-538.6 -28.854)"/>
                    <path id="Path_420" data-name="Path 420" class="cls-2" d="M617.825,58.007c0,2.64-1.112,4.725-2.363,4.725h0c-1.39,0-2.362-2.085-2.362-4.725V50.225c0-2.64,1.112-4.725,2.362-4.725h0c1.251,0,2.363,2.085,2.363,4.725Z" transform="translate(-509.566 -30.491)"/>
                    <path id="Path_421" data-name="Path 421" class="cls-2" d="M543.325,77.207c0,2.64-1.112,4.725-2.363,4.725h0c-1.39,0-2.363-2.085-2.363-4.725V69.425c0-2.64,1.112-4.725,2.363-4.725h0c1.251,0,2.363,2.085,2.363,4.725Z" transform="translate(-538.6 -23.009)"/>
                  </g>
                  <path id="Path_422" data-name="Path 422" class="cls-2" d="M644.7,214.574a13.493,13.493,0,0,1-13.48,13.48H552.98a13.493,13.493,0,0,1-13.48-13.48V29.88A13.493,13.493,0,0,1,552.98,16.4h78.241A13.493,13.493,0,0,1,644.7,29.88Z" transform="translate(-538.249 -16.4)"/>
                </g>
                <path id="Path_423" data-name="Path 423" class="cls-5" d="M638.612,207.283a13.493,13.493,0,0,1-13.48,13.48H556.48A13.493,13.493,0,0,1,543,207.283V34.68A13.493,13.493,0,0,1,556.48,21.2h68.652a13.493,13.493,0,0,1,13.48,13.48Z" transform="translate(-536.885 -14.529)"/>
              </g>
              <path id="Path_424" data-name="Path 424" class="cls-2" d="M610.575,18.2H558.739c0,.417-.139.834-.139,1.251a7.177,7.177,0,0,0,7.227,7.227h37.661a7.266,7.266,0,0,0,7.227-7.227C610.714,19.034,610.575,18.617,610.575,18.2Zm-20.29,5.837H578.056a.973.973,0,1,1,0-1.946h12.229a.95.95,0,0,1,.973.973C591.4,23.62,590.841,24.037,590.286,24.037Z" transform="translate(-530.806 -15.699)"/>
            </g>
            <g id="Group_529" data-name="Group 529" transform="translate(0 46.139)">
              <path id="Path_425" data-name="Path 425" class="cls-4" d="M613.889,51.5H528.7a3.885,3.885,0,0,0-3.891,3.891v9.172s-.417,1.946-4.308,3.057a5.511,5.511,0,0,0,4.308,1.251v-.556a3.884,3.884,0,0,0,3.891,3.891h85.19a3.884,3.884,0,0,0,3.891-3.891V55.391A3.8,3.8,0,0,0,613.889,51.5Z" transform="translate(-520.5 -48.86)"/>
              <path id="Path_426" data-name="Path 426" class="cls-4" d="M579.1,82.1v-7.5A3.884,3.884,0,0,0,575.2,70.7H529.9a3.884,3.884,0,0,0-3.891,3.891v3.891s-.417,1.946-4.308,3.057a5.511,5.511,0,0,0,4.308,1.251v-.556a3.884,3.884,0,0,0,3.891,3.891h45.3A4,4,0,0,0,579.1,82.1Z" transform="translate(-520.032 -41.377)"/>
              <path id="Path_427" data-name="Path 427" class="cls-4" d="M644.887,96.982V93.091A3.884,3.884,0,0,0,641,89.2h-45.3a3.884,3.884,0,0,0-3.891,3.891v7.5a3.884,3.884,0,0,0,3.891,3.891H641a3.884,3.884,0,0,0,3.891-3.891v.556A5.512,5.512,0,0,0,649.2,99.9C645.443,98.789,644.887,96.982,644.887,96.982Z" transform="translate(-492.713 -34.167)"/>
              <g id="Group_519" data-name="Group 519" transform="translate(1.285)">
                <g id="Group_518" data-name="Group 518">
                  <g id="Group_517" data-name="Group 517">
                    <path id="Path_428" data-name="Path 428" class="cls-2" d="M524.587,62.524v-8.2a4.686,4.686,0,0,1,4.725-4.725h83.522a4.686,4.686,0,0,1,4.725,4.725V65.582a4.686,4.686,0,0,1-4.725,4.725H528.478a3.884,3.884,0,0,1-3.891-3.891v.556a5.159,5.159,0,0,1-2.641-.278.821.821,0,0,1,0-1.529,5.5,5.5,0,0,0,2.641-2.224Z" transform="translate(-521.425 -49.6)"/>
                  </g>
                  <path id="Path_429" data-name="Path 429" class="cls-6" d="M609.732,54.979H528.99a1.393,1.393,0,0,1-1.39-1.39h0a1.393,1.393,0,0,1,1.39-1.39h80.742a1.393,1.393,0,0,1,1.39,1.39h0A1.62,1.62,0,0,1,609.732,54.979Z" transform="translate(-519.018 -48.587)"/>
                  <path id="Path_430" data-name="Path 430" class="cls-6" d="M556.823,58.379H528.89a1.393,1.393,0,0,1-1.39-1.39h0a1.393,1.393,0,0,1,1.39-1.39h27.933a1.393,1.393,0,0,1,1.39,1.39h0A1.393,1.393,0,0,1,556.823,58.379Z" transform="translate(-519.057 -47.262)"/>
                  <path id="Path_431" data-name="Path 431" class="cls-6" d="M600.691,58.379h-48.5a1.393,1.393,0,0,1-1.39-1.39h0a1.393,1.393,0,0,1,1.39-1.39h48.5a1.393,1.393,0,0,1,1.39,1.39h0A1.489,1.489,0,0,1,600.691,58.379Z" transform="translate(-509.977 -47.262)"/>
                  <path id="Path_432" data-name="Path 432" class="cls-7" d="M577.391,62.179h-48.5a1.393,1.393,0,0,1-1.39-1.39h0a1.393,1.393,0,0,1,1.39-1.39h48.5a1.393,1.393,0,0,1,1.39,1.39h0A1.313,1.313,0,0,1,577.391,62.179Z" transform="translate(-519.057 -45.781)"/>
                </g>
              </g>
              <path id="Path_433" data-name="Path 433" class="cls-4" d="M613.889,104.5H528.7a3.885,3.885,0,0,0-3.891,3.891v9.172s-.417,1.946-4.308,3.057a5.511,5.511,0,0,0,4.308,1.251v-.556a3.884,3.884,0,0,0,3.891,3.891h85.19a3.884,3.884,0,0,0,3.891-3.891V108.391A3.8,3.8,0,0,0,613.889,104.5Z" transform="translate(-520.5 -28.205)"/>
              <g id="Group_522" data-name="Group 522" transform="translate(0.139 73.655)">
                <g id="Group_521" data-name="Group 521">
                  <g id="Group_520" data-name="Group 520">
                    <path id="Path_434" data-name="Path 434" class="cls-2" d="M524.908,115.663v-9.172A3.884,3.884,0,0,1,528.8,102.6h85.19a3.884,3.884,0,0,1,3.891,3.891v12.924a3.884,3.884,0,0,1-3.891,3.891H528.8a3.884,3.884,0,0,1-3.891-3.891v.556a5.512,5.512,0,0,1-4.308-1.251C524.491,117.609,524.908,115.663,524.908,115.663Z" transform="translate(-520.6 -102.6)"/>
                  </g>
                  <path id="Path_435" data-name="Path 435" class="cls-6" d="M609.732,107.979H528.99a1.393,1.393,0,0,1-1.39-1.39h0a1.393,1.393,0,0,1,1.39-1.39h80.742a1.393,1.393,0,0,1,1.39,1.39h0A1.62,1.62,0,0,1,609.732,107.979Z" transform="translate(-517.872 -101.587)"/>
                  <path id="Path_436" data-name="Path 436" class="cls-6" d="M556.823,111.379H528.89a1.393,1.393,0,0,1-1.39-1.39h0a1.393,1.393,0,0,1,1.39-1.39h27.933a1.393,1.393,0,0,1,1.39,1.39h0A1.393,1.393,0,0,1,556.823,111.379Z" transform="translate(-517.911 -100.262)"/>
                  <path id="Path_437" data-name="Path 437" class="cls-6" d="M600.691,111.379h-48.5a1.393,1.393,0,0,1-1.39-1.39h0a1.393,1.393,0,0,1,1.39-1.39h48.5a1.393,1.393,0,0,1,1.39,1.39h0A1.489,1.489,0,0,1,600.691,111.379Z" transform="translate(-508.831 -100.262)"/>
                  <path id="Path_438" data-name="Path 438" class="cls-7" d="M577.391,115.179h-48.5a1.393,1.393,0,0,1-1.39-1.39h0a1.393,1.393,0,0,1,1.39-1.39h48.5a1.393,1.393,0,0,1,1.39,1.39h0A1.313,1.313,0,0,1,577.391,115.179Z" transform="translate(-517.911 -98.781)"/>
                </g>
              </g>
              <g id="Group_525" data-name="Group 525" transform="translate(1.668 26.544)">
                <g id="Group_524" data-name="Group 524">
                  <g id="Group_523" data-name="Group 523">
                    <path id="Path_439" data-name="Path 439" class="cls-2" d="M526.008,76.482V72.591A3.884,3.884,0,0,1,529.9,68.7h45.3a3.884,3.884,0,0,1,3.891,3.891v7.643a3.884,3.884,0,0,1-3.891,3.891H529.9a3.885,3.885,0,0,1-3.891-3.891v.556A5.511,5.511,0,0,1,521.7,79.54C525.591,78.428,526.008,76.482,526.008,76.482Z" transform="translate(-521.7 -68.7)"/>
                  </g>
                  <path id="Path_440" data-name="Path 440" class="cls-6" d="M570.986,74.079h-41a1.393,1.393,0,0,1-1.39-1.39h0a1.393,1.393,0,0,1,1.39-1.39h41a1.393,1.393,0,0,1,1.39,1.39h0A1.393,1.393,0,0,1,570.986,74.079Z" transform="translate(-519.011 -67.687)"/>
                  <path id="Path_441" data-name="Path 441" class="cls-7" d="M565.528,77.44H529.812a1.2,1.2,0,0,1-1.112-1.112v-.417a1.2,1.2,0,0,1,1.112-1.112h35.716a1.2,1.2,0,0,1,1.112,1.112v.417A1.2,1.2,0,0,1,565.528,77.44Z" transform="translate(-518.972 -66.323)"/>
                </g>
              </g>
              <g id="Group_528" data-name="Group 528" transform="translate(99.226 52.392)">
                <g id="Group_527" data-name="Group 527">
                  <g id="Group_526" data-name="Group 526">
                    <path id="Path_442" data-name="Path 442" class="cls-2" d="M644.987,95.082V91.191A3.884,3.884,0,0,0,641.1,87.3h-45.3a3.884,3.884,0,0,0-3.891,3.891v7.5a3.884,3.884,0,0,0,3.891,3.891h45.3a3.884,3.884,0,0,0,3.891-3.891v.556A5.511,5.511,0,0,0,649.3,98C645.4,96.889,644.987,95.082,644.987,95.082Z" transform="translate(-591.9 -87.3)"/>
                  </g>
                  <path id="Path_443" data-name="Path 443" class="cls-6" d="M596.19,92.579h41a1.393,1.393,0,0,0,1.39-1.39h0a1.393,1.393,0,0,0-1.39-1.39h-41a1.393,1.393,0,0,0-1.39,1.39h0A1.393,1.393,0,0,0,596.19,92.579Z" transform="translate(-590.77 -86.326)"/>
                  <path id="Path_444" data-name="Path 444" class="cls-7" d="M600.112,95.94h35.716a1.2,1.2,0,0,0,1.112-1.112v-.417a1.2,1.2,0,0,0-1.112-1.112H600.112A1.2,1.2,0,0,0,599,94.412v.417A1.023,1.023,0,0,0,600.112,95.94Z" transform="translate(-589.133 -84.962)"/>
                </g>
              </g>
            </g>
          </g>
        </g>
      </g>
      <g id="Group_552" data-name="Group 552" transform="translate(770.391 3822)">
        <g id="Group_551" data-name="Group 551" class="cls-8">
          <path id="Path_445" data-name="Path 445" class="cls-4" d="M642.691,56.98V29.88a13.493,13.493,0,0,0-13.48-13.48H550.97a13.493,13.493,0,0,0-13.48,13.48V41.971a2.433,2.433,0,0,0-1.39,2.085v3.891a2.276,2.276,0,0,0,1.39,2.085V63.094A6.133,6.133,0,0,0,536.1,67.4v7.782a6.133,6.133,0,0,0,1.39,4.308V83.94a6.133,6.133,0,0,0-1.39,4.308v7.782a6.133,6.133,0,0,0,1.39,4.308V214.574a13.493,13.493,0,0,0,13.48,13.48h78.241a13.493,13.493,0,0,0,13.48-13.48V73.934c.973-.556,1.807-2.363,1.807-4.586V61.566C644.5,59.342,643.664,57.536,642.691,56.98Z" transform="translate(-497.883 -3.893)"/>
          <g id="Group_550" data-name="Group 550" transform="translate(16.538 12.507)">
            <g id="Group_536" data-name="Group 536" transform="translate(25.154)">
              <g id="Group_535" data-name="Group 535">
                <g id="Group_534" data-name="Group 534">
                  <g id="Group_533" data-name="Group 533" transform="translate(0 25.432)">
                    <path id="Path_446" data-name="Path 446" class="cls-2" d="M543.325,40.954a2.435,2.435,0,0,1-2.363,2.363h0a2.342,2.342,0,0,1-2.363-2.363V37.063a2.342,2.342,0,0,1,2.363-2.363h0a2.435,2.435,0,0,1,2.363,2.363Z" transform="translate(-538.6 -34.7)"/>
                    <path id="Path_447" data-name="Path 447" class="cls-2" d="M543.325,62.207c0,2.64-1.112,4.725-2.363,4.725h0c-1.39,0-2.363-2.085-2.363-4.725V54.425c0-2.64,1.112-4.725,2.363-4.725h0c1.251,0,2.363,2.085,2.363,4.725Z" transform="translate(-538.6 -28.854)"/>
                    <path id="Path_448" data-name="Path 448" class="cls-2" d="M617.825,58.007c0,2.64-1.112,4.725-2.363,4.725h0c-1.39,0-2.362-2.085-2.362-4.725V50.225c0-2.64,1.112-4.725,2.362-4.725h0c1.251,0,2.363,2.085,2.363,4.725Z" transform="translate(-509.566 -30.491)"/>
                    <path id="Path_449" data-name="Path 449" class="cls-2" d="M543.325,77.207c0,2.64-1.112,4.725-2.363,4.725h0c-1.39,0-2.363-2.085-2.363-4.725V69.425c0-2.64,1.112-4.725,2.363-4.725h0c1.251,0,2.363,2.085,2.363,4.725Z" transform="translate(-538.6 -23.009)"/>
                  </g>
                  <path id="Path_450" data-name="Path 450" class="cls-2" d="M644.7,214.574a13.493,13.493,0,0,1-13.48,13.48H552.98a13.493,13.493,0,0,1-13.48-13.48V29.88A13.493,13.493,0,0,1,552.98,16.4h78.241A13.493,13.493,0,0,1,644.7,29.88Z" transform="translate(-538.249 -16.4)"/>
                </g>
                <path id="Path_451" data-name="Path 451" class="cls-5" d="M638.612,207.283a13.493,13.493,0,0,1-13.48,13.48H556.48A13.493,13.493,0,0,1,543,207.283V34.68A13.493,13.493,0,0,1,556.48,21.2h68.652a13.493,13.493,0,0,1,13.48,13.48Z" transform="translate(-536.885 -14.529)"/>
              </g>
              <path id="Path_452" data-name="Path 452" class="cls-2" d="M610.575,18.2H558.739c0,.417-.139.834-.139,1.251a7.177,7.177,0,0,0,7.227,7.227h37.661a7.266,7.266,0,0,0,7.227-7.227C610.714,19.034,610.575,18.617,610.575,18.2Zm-20.29,5.837H578.056a.973.973,0,1,1,0-1.946h12.229a.95.95,0,0,1,.973.973C591.4,23.62,590.841,24.037,590.286,24.037Z" transform="translate(-530.806 -15.699)"/>
            </g>
            <g id="Group_549" data-name="Group 549" transform="translate(0 46.139)">
              <path id="Path_453" data-name="Path 453" class="cls-4" d="M613.889,51.5H528.7a3.885,3.885,0,0,0-3.891,3.891v9.172s-.417,1.946-4.308,3.057a5.511,5.511,0,0,0,4.308,1.251v-.556a3.884,3.884,0,0,0,3.891,3.891h85.19a3.884,3.884,0,0,0,3.891-3.891V55.391A3.8,3.8,0,0,0,613.889,51.5Z" transform="translate(-520.5 -48.86)"/>
              <path id="Path_454" data-name="Path 454" class="cls-4" d="M579.1,82.1v-7.5A3.884,3.884,0,0,0,575.2,70.7H529.9a3.884,3.884,0,0,0-3.891,3.891v3.891s-.417,1.946-4.308,3.057a5.511,5.511,0,0,0,4.308,1.251v-.556a3.884,3.884,0,0,0,3.891,3.891h45.3A4,4,0,0,0,579.1,82.1Z" transform="translate(-520.032 -41.377)"/>
              <path id="Path_455" data-name="Path 455" class="cls-4" d="M644.887,96.982V93.091A3.884,3.884,0,0,0,641,89.2h-45.3a3.884,3.884,0,0,0-3.891,3.891v7.5a3.884,3.884,0,0,0,3.891,3.891H641a3.884,3.884,0,0,0,3.891-3.891v.556A5.512,5.512,0,0,0,649.2,99.9C645.443,98.789,644.887,96.982,644.887,96.982Z" transform="translate(-492.713 -34.167)"/>
              <g id="Group_539" data-name="Group 539" transform="translate(1.285)">
                <g id="Group_538" data-name="Group 538">
                  <g id="Group_537" data-name="Group 537">
                    <path id="Path_456" data-name="Path 456" class="cls-2" d="M524.587,62.524v-8.2a4.686,4.686,0,0,1,4.725-4.725h83.522a4.686,4.686,0,0,1,4.725,4.725V65.582a4.686,4.686,0,0,1-4.725,4.725H528.478a3.884,3.884,0,0,1-3.891-3.891v.556a5.159,5.159,0,0,1-2.641-.278.821.821,0,0,1,0-1.529,5.5,5.5,0,0,0,2.641-2.224Z" transform="translate(-521.425 -49.6)"/>
                  </g>
                  <path id="Path_457" data-name="Path 457" class="cls-9" d="M609.732,54.979H528.99a1.393,1.393,0,0,1-1.39-1.39h0a1.393,1.393,0,0,1,1.39-1.39h80.742a1.393,1.393,0,0,1,1.39,1.39h0A1.62,1.62,0,0,1,609.732,54.979Z" transform="translate(-519.018 -48.587)"/>
                  <path id="Path_458" data-name="Path 458" class="cls-9" d="M556.823,58.379H528.89a1.393,1.393,0,0,1-1.39-1.39h0a1.393,1.393,0,0,1,1.39-1.39h27.933a1.393,1.393,0,0,1,1.39,1.39h0A1.393,1.393,0,0,1,556.823,58.379Z" transform="translate(-519.057 -47.262)"/>
                  <path id="Path_459" data-name="Path 459" class="cls-9" d="M600.691,58.379h-48.5a1.393,1.393,0,0,1-1.39-1.39h0a1.393,1.393,0,0,1,1.39-1.39h48.5a1.393,1.393,0,0,1,1.39,1.39h0A1.489,1.489,0,0,1,600.691,58.379Z" transform="translate(-509.977 -47.262)"/>
                  <path id="Path_460" data-name="Path 460" class="cls-7" d="M577.391,62.179h-48.5a1.393,1.393,0,0,1-1.39-1.39h0a1.393,1.393,0,0,1,1.39-1.39h48.5a1.393,1.393,0,0,1,1.39,1.39h0A1.313,1.313,0,0,1,577.391,62.179Z" transform="translate(-519.057 -45.781)"/>
                </g>
              </g>
              <path id="Path_461" data-name="Path 461" class="cls-4" d="M613.889,104.5H528.7a3.885,3.885,0,0,0-3.891,3.891v9.172s-.417,1.946-4.308,3.057a5.511,5.511,0,0,0,4.308,1.251v-.556a3.884,3.884,0,0,0,3.891,3.891h85.19a3.884,3.884,0,0,0,3.891-3.891V108.391A3.8,3.8,0,0,0,613.889,104.5Z" transform="translate(-520.5 -28.205)"/>
              <g id="Group_542" data-name="Group 542" transform="translate(0.139 73.655)">
                <g id="Group_541" data-name="Group 541">
                  <g id="Group_540" data-name="Group 540">
                    <path id="Path_462" data-name="Path 462" class="cls-2" d="M524.908,115.663v-9.172A3.884,3.884,0,0,1,528.8,102.6h85.19a3.884,3.884,0,0,1,3.891,3.891v12.924a3.884,3.884,0,0,1-3.891,3.891H528.8a3.884,3.884,0,0,1-3.891-3.891v.556a5.512,5.512,0,0,1-4.308-1.251C524.491,117.609,524.908,115.663,524.908,115.663Z" transform="translate(-520.6 -102.6)"/>
                  </g>
                  <path id="Path_463" data-name="Path 463" class="cls-9" d="M609.732,107.979H528.99a1.393,1.393,0,0,1-1.39-1.39h0a1.393,1.393,0,0,1,1.39-1.39h80.742a1.393,1.393,0,0,1,1.39,1.39h0A1.62,1.62,0,0,1,609.732,107.979Z" transform="translate(-517.872 -101.587)"/>
                  <path id="Path_464" data-name="Path 464" class="cls-9" d="M556.823,111.379H528.89a1.393,1.393,0,0,1-1.39-1.39h0a1.393,1.393,0,0,1,1.39-1.39h27.933a1.393,1.393,0,0,1,1.39,1.39h0A1.393,1.393,0,0,1,556.823,111.379Z" transform="translate(-517.911 -100.262)"/>
                  <path id="Path_465" data-name="Path 465" class="cls-9" d="M600.691,111.379h-48.5a1.393,1.393,0,0,1-1.39-1.39h0a1.393,1.393,0,0,1,1.39-1.39h48.5a1.393,1.393,0,0,1,1.39,1.39h0A1.489,1.489,0,0,1,600.691,111.379Z" transform="translate(-508.831 -100.262)"/>
                  <path id="Path_466" data-name="Path 466" class="cls-7" d="M577.391,115.179h-48.5a1.393,1.393,0,0,1-1.39-1.39h0a1.393,1.393,0,0,1,1.39-1.39h48.5a1.393,1.393,0,0,1,1.39,1.39h0A1.313,1.313,0,0,1,577.391,115.179Z" transform="translate(-517.911 -98.781)"/>
                </g>
              </g>
              <g id="Group_545" data-name="Group 545" transform="translate(1.668 26.544)">
                <g id="Group_544" data-name="Group 544">
                  <g id="Group_543" data-name="Group 543">
                    <path id="Path_467" data-name="Path 467" class="cls-2" d="M526.008,76.482V72.591A3.884,3.884,0,0,1,529.9,68.7h45.3a3.884,3.884,0,0,1,3.891,3.891v7.643a3.884,3.884,0,0,1-3.891,3.891H529.9a3.885,3.885,0,0,1-3.891-3.891v.556A5.511,5.511,0,0,1,521.7,79.54C525.591,78.428,526.008,76.482,526.008,76.482Z" transform="translate(-521.7 -68.7)"/>
                  </g>
                  <path id="Path_468" data-name="Path 468" class="cls-9" d="M570.986,74.079h-41a1.393,1.393,0,0,1-1.39-1.39h0a1.393,1.393,0,0,1,1.39-1.39h41a1.393,1.393,0,0,1,1.39,1.39h0A1.393,1.393,0,0,1,570.986,74.079Z" transform="translate(-519.011 -67.687)"/>
                  <path id="Path_469" data-name="Path 469" class="cls-7" d="M565.528,77.44H529.812a1.2,1.2,0,0,1-1.112-1.112v-.417a1.2,1.2,0,0,1,1.112-1.112h35.716a1.2,1.2,0,0,1,1.112,1.112v.417A1.2,1.2,0,0,1,565.528,77.44Z" transform="translate(-518.972 -66.323)"/>
                </g>
              </g>
              <g id="Group_548" data-name="Group 548" transform="translate(99.226 52.392)">
                <g id="Group_547" data-name="Group 547">
                  <g id="Group_546" data-name="Group 546">
                    <path id="Path_470" data-name="Path 470" class="cls-2" d="M644.987,95.082V91.191A3.884,3.884,0,0,0,641.1,87.3h-45.3a3.884,3.884,0,0,0-3.891,3.891v7.5a3.884,3.884,0,0,0,3.891,3.891h45.3a3.884,3.884,0,0,0,3.891-3.891v.556A5.511,5.511,0,0,0,649.3,98C645.4,96.889,644.987,95.082,644.987,95.082Z" transform="translate(-591.9 -87.3)"/>
                  </g>
                  <path id="Path_471" data-name="Path 471" class="cls-9" d="M596.19,92.579h41a1.393,1.393,0,0,0,1.39-1.39h0a1.393,1.393,0,0,0-1.39-1.39h-41a1.393,1.393,0,0,0-1.39,1.39h0A1.393,1.393,0,0,0,596.19,92.579Z" transform="translate(-590.77 -86.326)"/>
                  <path id="Path_472" data-name="Path 472" class="cls-7" d="M600.112,95.94h35.716a1.2,1.2,0,0,0,1.112-1.112v-.417a1.2,1.2,0,0,0-1.112-1.112H600.112A1.2,1.2,0,0,0,599,94.412v.417A1.023,1.023,0,0,0,600.112,95.94Z" transform="translate(-589.133 -84.962)"/>
                </g>
              </g>
            </g>
          </g>
        </g>
      </g>
    </g>
    <rect id="Rectangle_231" data-name="Rectangle 231" class="cls-10" width="261" height="268.488" transform="translate(735 3794.756)"/>
  </g>
</svg>
