<svg xmlns="http://www.w3.org/2000/svg" xmlns:xlink="http://www.w3.org/1999/xlink" viewBox="0 0 261 268.488">
  <defs>
    <style>
      .cls-1 {
        fill: #006ee5;
      }

      .cls-2 {
        fill: #fff;
      }

      .cls-3 {
        fill: #021447;
        opacity: 0.2;
      }

      .cls-4 {
        fill: #bae2f8;
      }

      .cls-5 {
        fill: #0044a9;
      }

      .cls-6 {
        fill: #1d6dcb;
      }

      .cls-7 {
        clip-path: url(#clip-path);
      }

      .cls-8 {
        fill: url(#linear-gradient);
      }

      .cls-9 {
        fill: url(#linear-gradient-2);
      }

      .cls-10 {
        fill: #a1ceef;
      }

      .cls-11 {
        fill: #121f55;
      }

      .cls-12 {
        fill: #2143af;
      }

      .cls-13 {
        fill: #f99ab6;
      }

      .cls-14 {
        fill: #fbb040;
      }

      .cls-15 {
        fill: url(#linear-gradient-3);
      }

      .cls-16 {
        fill: none;
      }
    </style>
    <clipPath id="clip-path">
      <ellipse id="Ellipse_24" data-name="Ellipse 24" cx="54.414" cy="54.414" rx="54.414" ry="54.414"/>
    </clipPath>
    <linearGradient id="linear-gradient" x1="63.996" y1="2.85" x2="62.928" y2="-0.089" gradientUnits="objectBoundingBox">
      <stop offset="0" stop-color="#1d6dcb"/>
      <stop offset="1" stop-color="#0044a9"/>
    </linearGradient>
    <linearGradient id="linear-gradient-2" x1="19.495" y1="1.001" x2="19.187" y2="0.024" xlink:href="#linear-gradient"/>
    <linearGradient id="linear-gradient-3" x1="36.413" y1="3.559" x2="35.825" y2="-0.119" xlink:href="#linear-gradient"/>
  </defs>
  <g id="Group_2117" data-name="Group 2117" transform="translate(-444 -3794.756)">
    <g id="Group_2116" data-name="Group 2116">
      <g id="Group_338" data-name="Group 338" transform="translate(477 3829.691)">
        <ellipse id="Ellipse_22" data-name="Ellipse 22" class="cls-1" cx="91.444" cy="91.444" rx="91.444" ry="91.444" transform="translate(6.501 6.501)"/>
        <path id="Path_316" data-name="Path 316" class="cls-2" d="M351.945,26.66A91.444,91.444,0,1,1,260.5,118.1,91.413,91.413,0,0,1,351.945,26.66m0-6.36a97.945,97.945,0,1,0,97.945,97.945A98.078,98.078,0,0,0,351.945,20.3Z" transform="translate(-254 -20.3)"/>
      </g>
      <g id="Group_344" data-name="Group 344" transform="translate(509.224 3801)">
        <path id="Path_317" data-name="Path 317" class="cls-3" d="M390.575,2.1H288.531A11.7,11.7,0,0,0,276.8,13.831V83.792a11.7,11.7,0,0,0,11.731,11.731h34.91l-1.7,6.643a12.78,12.78,0,0,0-11.024,12.579v4.805h57.524v-4.805a12.673,12.673,0,0,0-11.024-12.579l-1.7-6.643h34.91a11.7,11.7,0,0,0,11.731-11.731V13.831A11.5,11.5,0,0,0,390.575,2.1Z" transform="translate(-276.8 0.868)"/>
        <g id="Group_340" data-name="Group 340" transform="translate(2.968)">
          <g id="Group_339" data-name="Group 339">
            <path id="Path_318" data-name="Path 318" class="cls-2" d="M312.82,117.45v-4.805a12.673,12.673,0,0,1,11.024-12.579l1.7-6.643h-34.91A11.7,11.7,0,0,1,278.9,81.692V11.731A11.7,11.7,0,0,1,290.631,0H392.675a11.7,11.7,0,0,1,11.731,11.731V81.692a11.7,11.7,0,0,1-11.731,11.731h-34.91l1.7,6.643a12.78,12.78,0,0,1,11.024,12.579v4.805Z" transform="translate(-278.9)"/>
            <path id="Path_319" data-name="Path 319" class="cls-2" d="M391.311,3.4H289.267a7.087,7.087,0,0,0-7.067,7.067v70.1a7.087,7.087,0,0,0,7.067,7.067h40.987L326.3,103.607h-1.979a8.052,8.052,0,0,0-8.056,8.056h48.054a8.052,8.052,0,0,0-8.056-8.056h-1.979l-3.957-15.971h40.987a7.087,7.087,0,0,0,7.067-7.067V10.325A7.153,7.153,0,0,0,391.311,3.4Z" transform="translate(-277.536 1.405)"/>
          </g>
          <path id="Path_320" data-name="Path 320" class="cls-4" d="M398.195,71.424H282.3V10.367A7.087,7.087,0,0,1,289.367,3.3h101.9a7.087,7.087,0,0,1,7.067,7.067V71.424Z" transform="translate(-277.495 1.364)"/>
          <path id="Path_321" data-name="Path 321" class="cls-5" d="M354.213,82.156H306.3a8.052,8.052,0,0,1,8.056-8.056H346.3a7.933,7.933,0,0,1,7.915,8.056" transform="translate(-267.574 30.629)"/>
          <path id="Path_322" data-name="Path 322" class="cls-5" d="M341.384,78.771H313.4L317.357,62.8h19.928Z" transform="translate(-264.639 25.959)"/>
          <path id="Path_323" data-name="Path 323" class="cls-5" d="M391.3,67.512H289.275a7.091,7.091,0,0,1-7.075-7.067V51.4H398.232v9.045a6.8,6.8,0,0,1-6.934,7.067" transform="translate(-277.394 21.246)"/>
        </g>
        <g id="Group_342" data-name="Group 342" transform="translate(27.56 39.574)">
          <path id="Path_324" data-name="Path 324" class="cls-2" d="M366.261,36.763h-66a3.95,3.95,0,0,1-3.957-3.957v-.848A3.95,3.95,0,0,1,300.257,28h66a3.95,3.95,0,0,1,3.957,3.957v.848A3.863,3.863,0,0,1,366.261,36.763ZM300.4,28.989a2.835,2.835,0,0,0-2.827,2.827v.848a2.835,2.835,0,0,0,2.827,2.827h66a2.835,2.835,0,0,0,2.827-2.827v-.848a2.835,2.835,0,0,0-2.827-2.827h-66Z" transform="translate(-296.3 -28)"/>
          <path id="Path_325" data-name="Path 325" class="cls-2" d="M307.159,36.032h-6.784a3.742,3.742,0,0,1-3.675-3.675v-.283a3.742,3.742,0,0,1,3.675-3.675h6.784Z" transform="translate(-296.135 -27.835)"/>
          <g id="Group_341" data-name="Group 341" transform="translate(3.193 1.801)">
            <path id="Path_326" data-name="Path 326" class="cls-6" d="M299.5,31.007a1.74,1.74,0,0,1,.707-1.413c.283-.141.424-.283.707-.283a1.818,1.818,0,0,1,1.7.565,1.221,1.221,0,0,1,.424.848,1.6,1.6,0,0,1-.424,1.555h0a1.8,1.8,0,0,1-2.544.141A2.511,2.511,0,0,1,299.5,31.007Zm3.109,0h0a.946.946,0,0,0-.565-.989,1.269,1.269,0,0,0-1.979,1.413.138.138,0,0,0,.141.141,1.34,1.34,0,0,0,2.12.283C302.609,31.713,302.609,31.431,302.609,31.007Z" transform="translate(-298.17 -29.274)"/>
            <rect id="Rectangle_37" data-name="Rectangle 37" class="cls-6" width="0.707" height="2.827" transform="translate(1.893 2.692) rotate(42.053)"/>
          </g>
        </g>
        <g id="Group_343" data-name="Group 343" transform="translate(60.774 24.592)">
          <path id="Path_327" data-name="Path 327" class="cls-2" d="M321.779,17.4a1.932,1.932,0,0,0-1.979,1.979v7.632a1.979,1.979,0,0,0,3.957,0V19.379A2.021,2.021,0,0,0,321.779,17.4Zm1.979,9.611a1.059,1.059,0,0,1-.141.707l-.989-.989h-1.272l.707-.707a1.887,1.887,0,0,1,0-2.827l1.7-1.7v5.512Z" transform="translate(-319.8 -17.4)"/>
          <path id="Path_328" data-name="Path 328" class="cls-2" d="M325.992,25.615l-.565-.565a1.791,1.791,0,0,1,0-2.544l.283-.283a1.207,1.207,0,0,0,0-1.837,1.887,1.887,0,0,0-2.827,0l-.141.141v5.512a1.06,1.06,0,0,1-.141.707l.565.565a1.887,1.887,0,0,0,2.827,0A1.286,1.286,0,0,0,325.992,25.615Z" transform="translate(-318.643 -16.429)"/>
        </g>
      </g>
      <g id="Group_398" data-name="Group 398" transform="translate(511.203 3929.756)">
        <path id="Path_329" data-name="Path 329" class="cls-3" d="M338.126,92.8a59.926,59.926,0,1,0,59.926,59.926A59.957,59.957,0,0,0,338.126,92.8Z" transform="translate(-278.2 -90.397)"/>
        <g id="Group_397" data-name="Group 397" transform="translate(3.251)">
          <g id="Group_345" data-name="Group 345">
            <ellipse id="Ellipse_23" data-name="Ellipse 23" class="cls-2" cx="55.414" cy="55.414" rx="55.414" ry="55.414" transform="translate(4.088 4.088)"/>
            <path id="Path_330" data-name="Path 330" class="cls-2" d="M340,96.188A54.414,54.414,0,1,1,285.588,150.6,54.347,54.347,0,0,1,340,96.188m0-5.088a59.5,59.5,0,1,0,59.5,59.5A59.595,59.595,0,0,0,340,91.1Z" transform="translate(-280.5 -91.1)"/>
          </g>
          <g id="Group_396" data-name="Group 396" transform="translate(5.088 5.088)">
            <g id="Group_395" data-name="Group 395" class="cls-7">
              <g id="Group_347" data-name="Group 347" transform="translate(63.035 16.395)">
                <g id="Group_346" data-name="Group 346">
                  <path id="Path_331" data-name="Path 331" class="cls-8" d="M339.866,141.492c6.077,0,11.024-7.915,11.024-17.667S345.943,106.3,339.724,106.3c-6.077,0-11.024,7.915-11.024,17.667S333.647,141.492,339.866,141.492Z" transform="translate(-328.7 -106.3)"/>
                </g>
              </g>
              <g id="Group_349" data-name="Group 349" transform="translate(2.179 5.984)">
                <g id="Group_348" data-name="Group 348">
                  <path id="Path_332" data-name="Path 332" class="cls-9" d="M303.956,152.876c7.067-4.1,14.982-14.275,12.014-23.32-7.067-21.059,9.328-28.55,17.525-30.1,8.056-1.555,15.264.565,19.787,4.1,7.349,5.936,5.088,15.971.989,24.168,4.381,2.544,6.643,8.056,4.1,12.155-5.512,8.9-.848,20.918,2.544,28.126,5.371,11.448-2.12,25.723-15.123,32.224s-29.822,5.795-42.825,0c-6.5-2.827-12.3-7.067-15.264-12.72C281.343,175.49,290.529,160.508,303.956,152.876Z" transform="translate(-285.642 -98.934)"/>
                </g>
              </g>
              <g id="Group_351" data-name="Group 351" transform="translate(65.877 81.096)">
                <g id="Group_350" data-name="Group 350">
                  <path id="Path_333" data-name="Path 333" class="cls-4" d="M374.51,211.47q4.664.636,9.752.848a4.525,4.525,0,1,0,.283-9.046c-15.829-.424-27.7-5.088-35.192-13.851-11.448-13.427-9.328-31.942-9.328-32.224a4.558,4.558,0,0,0-9.046-1.131c-.141.989-2.685,22.755,11.307,39.15C349.917,203.979,360.659,209.491,374.51,211.47Z" transform="translate(-330.71 -152.078)"/>
                </g>
              </g>
              <g id="Group_352" data-name="Group 352" transform="translate(62.762 77.809)">
                <path id="Path_334" data-name="Path 334" class="cls-1" d="M337.543,149.819a7.8,7.8,0,0,1,6.643,8.763c0,.141-1.979,17.526,8.48,29.539,5.088,5.936,12.437,9.752,22.048,11.589a17.553,17.553,0,0,0-.989,15.688c-13.992-2.261-25.016-7.915-32.79-17.1-14.982-17.526-12.3-40.7-12.155-41.694A7.745,7.745,0,0,1,337.543,149.819Z" transform="translate(-328.506 -149.753)"/>
              </g>
              <g id="Group_354" data-name="Group 354" transform="translate(49.326 72.638)">
                <g id="Group_353" data-name="Group 353">
                  <path id="Path_335" data-name="Path 335" class="cls-4" d="M340.2,159.105a4.984,4.984,0,0,0,1.413-7.915,15.765,15.765,0,0,0-11.448-5.088h-1.131A12.582,12.582,0,0,0,319,150.484C320.979,156.42,333.981,161.508,340.2,159.105Z" transform="translate(-319 -146.094)"/>
                </g>
              </g>
              <g id="Group_356" data-name="Group 356" transform="translate(55.403 61.481)">
                <g id="Group_355" data-name="Group 355">
                  <path id="Path_336" data-name="Path 336" class="cls-4" d="M330.791,140.32l.141,5.088.141,9.611-7.349.141-.283-12.155L323.3,138.2A13.969,13.969,0,0,0,330.791,140.32Z" transform="translate(-323.3 -138.2)"/>
                </g>
              </g>
              <g id="Group_359" data-name="Group 359" transform="translate(55.545 62.47)">
                <g id="Group_358" data-name="Group 358">
                  <g id="Group_357" data-name="Group 357">
                    <path id="Path_337" data-name="Path 337" class="cls-10" d="M330.749,141.161l.141,5.088c-2.544-.424-5.795-1.555-7.35-3.533L323.4,138.9A11.363,11.363,0,0,0,330.749,141.161Z" transform="translate(-323.4 -138.9)"/>
                  </g>
                </g>
              </g>
              <g id="Group_361" data-name="Group 361" transform="translate(39.989 16.53)">
                <g id="Group_360" data-name="Group 360">
                  <path id="Path_338" data-name="Path 338" class="cls-4" d="M333.461,157.283h0a21.819,21.819,0,0,1-16.96-8.621,20.294,20.294,0,0,1-4.1-12.861l.141-8.339A21.2,21.2,0,0,1,334.027,106.4h0a19.474,19.474,0,0,1,10.317,2.827,21.158,21.158,0,0,1,10.742,18.8l-.141,8.339a21.269,21.269,0,0,1-10.459,18.091A23.186,23.186,0,0,1,333.461,157.283Z" transform="translate(-312.394 -106.396)"/>
                </g>
              </g>
              <g id="Group_363" data-name="Group 363" transform="translate(37.351 121.014)">
                <g id="Group_362" data-name="Group 362">
                  <path id="Path_339" data-name="Path 339" class="cls-11" d="M350.487,196.12a20.213,20.213,0,1,1-24.168-15.264A20.129,20.129,0,0,1,350.487,196.12Z" transform="translate(-310.527 -180.322)"/>
                </g>
              </g>
              <g id="Group_365" data-name="Group 365" transform="translate(66.689 80.362)">
                <g id="Group_364" data-name="Group 364">
                  <path id="Path_340" data-name="Path 340" class="cls-1" d="M345.864,160.238c1.413,3.816-2.4,7.632-6.5,8.056a7.223,7.223,0,0,1-8.056-6.5c-.424-4.1,5.512-12.862,7.915-9.469C341.2,155.433,344.733,156.846,345.864,160.238Z" transform="translate(-331.285 -151.559)"/>
                </g>
              </g>
              <g id="Group_367" data-name="Group 367" transform="translate(39.008 76.97)">
                <g id="Group_366" data-name="Group 366">
                  <path id="Path_341" data-name="Path 341" class="cls-1" d="M322.017,149.217a12.636,12.636,0,0,0-2.968,7.491s1.837,33.214-7.349,48.619l38.726,3.251-.989-46.075a16.716,16.716,0,0,0-4.805-12.579C344.49,157.273,329.225,148.369,322.017,149.217Z" transform="translate(-311.7 -149.159)"/>
                </g>
              </g>
              <g id="Group_374" data-name="Group 374" transform="translate(67.081 230.938)">
                <g id="Group_370" data-name="Group 370" transform="translate(0 0)">
                  <g id="Group_369" data-name="Group 369">
                    <g id="Group_368" data-name="Group 368">
                      <path id="Path_342" data-name="Path 342" class="cls-12" d="M333.594,268.418a40.175,40.175,0,0,1-1.979,10.459.73.73,0,0,0,.424.989h0a.73.73,0,0,0,.989-.424c.424-.989,1.837-4.24,2.261-5.371.565-1.555,2.261-4.523,4.1.707s1.131,9.752,1.272,15.83c.141,8.2,10.459,10.883,12.155,11.589,4.24,1.555,8.48.141,6.925-4.523-1.837-5.371-4.24-6.643-6.784-13.285-3.675-9.611-2.968-15.688-4.805-21.342-.283-.989-2.261-4.664-6.219-4.947C338.4,257.96,334.018,262.058,333.594,268.418Z" transform="translate(-331.562 -258.098)"/>
                    </g>
                  </g>
                </g>
                <g id="Group_373" data-name="Group 373" transform="translate(10.736 2.588)">
                  <g id="Group_372" data-name="Group 372">
                    <g id="Group_371" data-name="Group 371">
                      <path id="Path_343" data-name="Path 343" class="cls-13" d="M342.892,285.894c-2.12-4.805-4.664-19.646-3.392-22.9,1.555-3.816,9.47-4.1,10.035-.707.848,5.936-1.555,16.254,3.251,27.419C352.22,292.537,345.436,291.406,342.892,285.894Z" transform="translate(-339.159 -259.928)"/>
                    </g>
                  </g>
                </g>
              </g>
              <g id="Group_376" data-name="Group 376" transform="translate(45.369 140.767)">
                <g id="Group_375" data-name="Group 375">
                  <path id="Path_344" data-name="Path 344" class="cls-11" d="M321.994,212.957l52.153,24.168L369.2,225.394l-19.363,62.611a7.33,7.33,0,0,0,4.805,9.045,7.131,7.131,0,0,0,8.763-4.24l23.744-61.057a9.257,9.257,0,0,0-4.523-11.589l-.424-.141-51.87-24.734a9.8,9.8,0,0,0-13.144,4.664,9.662,9.662,0,0,0,4.805,13Z" transform="translate(-316.2 -194.298)"/>
                </g>
              </g>
              <g id="Group_383" data-name="Group 383" transform="translate(108.653 209.776)">
                <g id="Group_379" data-name="Group 379" transform="translate(0 0.785)">
                  <g id="Group_378" data-name="Group 378">
                    <g id="Group_377" data-name="Group 377">
                      <path id="Path_345" data-name="Path 345" class="cls-12" d="M362.14,257.559a40.671,40.671,0,0,1,3.109,10.176.791.791,0,0,0,.848.707h0a.792.792,0,0,0,.707-.848c0-1.131-.424-4.664-.424-5.795-.141-1.7-.141-5.088,3.957-1.413s5.653,8.056,8.48,13.285c3.957,7.208,14.416,4.805,16.112,4.523,4.523-.565,7.491-3.816,3.957-7.208-4.1-3.957-6.925-3.957-12.155-8.621-7.773-6.784-9.893-12.437-14.275-16.678-.848-.707-4.24-3.109-7.773-1.413C361.575,245.97,359.6,251.623,362.14,257.559Z" transform="translate(-360.976 -243.68)"/>
                    </g>
                  </g>
                </g>
                <g id="Group_382" data-name="Group 382" transform="translate(6.94)">
                  <g id="Group_381" data-name="Group 381">
                    <g id="Group_380" data-name="Group 380">
                      <path id="Path_346" data-name="Path 346" class="cls-13" d="M379.615,267.965c-4.1-3.251-13.286-15.123-13.71-18.656-.424-4.1,6.5-8.056,8.48-5.229,3.533,4.805,6.219,15.123,15.688,22.614C390.922,269.52,384.562,271.781,379.615,267.965Z" transform="translate(-365.887 -243.124)"/>
                    </g>
                  </g>
                </g>
              </g>
              <g id="Group_385" data-name="Group 385" transform="translate(44.234 139.199)">
                <g id="Group_384" data-name="Group 384">
                  <path id="Path_347" data-name="Path 347" class="cls-11" d="M325.86,214.97l57.382-2.827-9.893-8.056L385.5,268.395a7.183,7.183,0,0,0,8.339,5.795,7.287,7.287,0,0,0,5.795-7.915l-7.491-65.014a9.021,9.021,0,0,0-9.469-8.056h-.424l-57.382,2.261a9.9,9.9,0,0,0-9.469,10.176,10.034,10.034,0,0,0,10.459,9.328Z" transform="translate(-315.398 -193.189)"/>
                </g>
              </g>
              <path id="Path_348" data-name="Path 348" class="cls-1" d="M328.113,156s-.565,12.579-3.957,17.1-7.773,6.36-8.056,8.339c0,0,.707-5.229.848-9.328s.707-8.056.707-8.056Z" transform="translate(-270.873 -69.362)"/>
              <g id="Group_387" data-name="Group 387" transform="translate(27.308 80.221)">
                <g id="Group_386" data-name="Group 386">
                  <path id="Path_349" data-name="Path 349" class="cls-4" d="M326.994,212.432a58.275,58.275,0,0,0,7.349.848,4.532,4.532,0,1,0,.565-9.045c-8.339-.565-18.939-2.544-21.624-9.328-4.24-10.6,10.459-29.963,15.83-35.9a4.5,4.5,0,1,0-6.643-6.077c-2.544,2.827-24.734,27.56-17.667,45.369C307.914,205.79,315.263,210.454,326.994,212.432Z" transform="translate(-303.422 -151.459)"/>
                </g>
              </g>
              <g id="Group_388" data-name="Group 388" transform="translate(24.185 77.062)">
                <path id="Path_350" data-name="Path 350" class="cls-1" d="M320.982,151.734a7.766,7.766,0,0,1,7.067-2.4,8.472,8.472,0,0,1,4.664,2.544,7.843,7.843,0,0,1-.424,10.6c-6.219,6.784-18.374,24.027-14.982,32.224a7.737,7.737,0,0,0,3.251,3.533,7.587,7.587,0,0,1,3.675,8.056v.141c-.989,5.088-6.643,8.056-11.165,5.371a23.078,23.078,0,0,1-10.176-11.307C295.118,181.273,316.6,156.4,320.982,151.734Z" transform="translate(-301.211 -149.225)"/>
              </g>
              <g id="Group_390" data-name="Group 390" transform="translate(55.773 125.175)">
                <g id="Group_389" data-name="Group 389">
                  <path id="Path_351" data-name="Path 351" class="cls-14" d="M345.24,195.045a11.246,11.246,0,0,1-3.109,6.784l-16.536-1.413a10.555,10.555,0,0,1-1.979-7.208,10.851,10.851,0,1,1,21.624,1.837Z" transform="translate(-323.562 -183.266)"/>
                </g>
              </g>
              <g id="Group_392" data-name="Group 392" transform="translate(111.922 127.623)">
                <g id="Group_391" data-name="Group 391">
                  <path id="Path_352" data-name="Path 352" class="cls-4" d="M384.929,196.308a10.924,10.924,0,0,1-2.827,6.925l-16.536-.707a10.365,10.365,0,0,1-2.261-7.067A10.992,10.992,0,0,1,374.611,185,10.868,10.868,0,0,1,384.929,196.308Z" transform="translate(-363.289 -184.998)"/>
                </g>
              </g>
              <g id="Group_394" data-name="Group 394" transform="translate(35.981 12.32)">
                <g id="Group_393" data-name="Group 393">
                  <path id="Path_353" data-name="Path 353" class="cls-15" d="M310.041,124.311c2.4,6.784,13.144,9.187,24.027,5.512,10.883-3.816,17.667-12.437,15.264-19.222s-13.144-9.187-24.027-5.371C314.423,108.905,307.639,117.526,310.041,124.311Z" transform="translate(-309.558 -103.417)"/>
                </g>
              </g>
              <path id="Path_354" data-name="Path 354" class="cls-4" d="M348.246,130.293s1.413,4.947.141,8.48c-2.4,6.5-10.317,12.014-19.787,12.438l.283-13.568,13-12.579,2.968-4.664,3.533,3.957Z" transform="translate(-265.706 -84.077)"/>
            </g>
          </g>
        </g>
      </g>
    </g>
    <rect id="Rectangle_229" data-name="Rectangle 229" class="cls-16" width="261" height="268.488" transform="translate(444 3794.756)"/>
  </g>
</svg>
