<svg xmlns="http://www.w3.org/2000/svg" xmlns:xlink="http://www.w3.org/1999/xlink" viewBox="0 0 129.418 129.418">
  <defs>
    <style>
      .cls-1 {
        fill: #fff;
      }

      .cls-2 {
        fill: #006ee5;
      }

      .cls-3 {
        filter: url(#Ellipse_3856);
      }
    </style>
    <filter id="Ellipse_3856" x="0" y="0" width="129.418" height="129.418" filterUnits="userSpaceOnUse">
      <feOffset dy="6" input="SourceAlpha"/>
      <feGaussianBlur stdDeviation="3" result="blur"/>
      <feFlood flood-opacity="0.161"/>
      <feComposite operator="in" in2="blur"/>
      <feComposite in="SourceGraphic"/>
    </filter>
  </defs>
  <g id="Group_3013" data-name="Group 3013" transform="translate(-273 -1198)">
    <g class="cls-3" transform="matrix(1, 0, 0, 1, 273, 1198)">
      <circle id="Ellipse_3856-2" data-name="Ellipse 3856" class="cls-1" cx="55.709" cy="55.709" r="55.709" transform="translate(9 3)"/>
    </g>
    <g id="wallet" transform="translate(308.135 1228.215)">
      <path id="Path_2133" data-name="Path 2133" class="cls-2" d="M57.562,26.3H54.854V13.837a5.423,5.423,0,0,0-5.417-5.417H45.769L42.016,1.672A3.25,3.25,0,0,0,37.6.409L23.189,8.421H7.1a5.423,5.423,0,0,0-5.417,5.417V51.031A5.423,5.423,0,0,0,7.1,56.448h42.34a5.423,5.423,0,0,0,5.417-5.417V40.108h2.708V26.3ZM49.437,10.587a3.244,3.244,0,0,1,3.214,2.889H48.58l-1.606-2.889ZM38.65,2.3a1.1,1.1,0,0,1,1.472.42L46.1,13.475H18.557ZM52.687,51.031a3.254,3.254,0,0,1-3.25,3.25H7.1a3.254,3.254,0,0,1-3.25-3.25V13.837a3.254,3.254,0,0,1,3.25-3.25h12.2l-5.2,2.889H7.775a1.083,1.083,0,1,0,0,2.167H52.687V26.3H44.765a6.682,6.682,0,0,0-6.673,6.673v.466a6.682,6.682,0,0,0,6.673,6.673h7.922V51.031ZM55.4,37.941H44.765a4.512,4.512,0,0,1-4.507-4.507v-.466a4.512,4.512,0,0,1,4.507-4.507H55.4Zm-7.312-4.651A2.392,2.392,0,1,1,45.691,30.9,2.391,2.391,0,0,1,48.083,33.291Z"/>
    </g>
  </g>
</svg>
