<svg xmlns="http://www.w3.org/2000/svg" xmlns:xlink="http://www.w3.org/1999/xlink" viewBox="0 0 129.418 129.418">
  <defs>
    <style>
      .cls-1 {
        fill: #fff;
      }

      .cls-2 {
        fill: #006ee5;
      }

      .cls-3 {
        filter: url(#Ellipse_3856);
      }
    </style>
    <filter id="Ellipse_3856" x="0" y="0" width="129.418" height="129.418" filterUnits="userSpaceOnUse">
      <feOffset dy="6" input="SourceAlpha"/>
      <feGaussianBlur stdDeviation="3" result="blur"/>
      <feFlood flood-opacity="0.161"/>
      <feComposite operator="in" in2="blur"/>
      <feComposite in="SourceGraphic"/>
    </filter>
  </defs>
  <g id="Group_3011" data-name="Group 3011" transform="translate(-1049 -1198)">
    <g class="cls-3" transform="matrix(1, 0, 0, 1, 1049, 1198)">
      <circle id="Ellipse_3856-2" data-name="Ellipse 3856" class="cls-1" cx="55.709" cy="55.709" r="55.709" transform="translate(9 3)"/>
    </g>
    <g id="pie-graphic" transform="translate(1085.8 1218.121)">
      <g id="Group_2747" data-name="Group 2747" transform="translate(29.607 12)">
        <g id="Group_2746" data-name="Group 2746">
          <path id="Path_2134" data-name="Path 2134" class="cls-2" d="M288.03,19.525A25.526,25.526,0,0,0,269.862,12a1.1,1.1,0,0,0-1.1,1.1V37.694a1.1,1.1,0,0,0,.323.779l17.389,17.389a1.1,1.1,0,0,0,1.558,0,25.694,25.694,0,0,0,0-36.336Zm-17.067-5.3a23.367,23.367,0,0,1,5.724.987l-5.724,5.724Zm0,9.823c.015-.013.03-.026.044-.04l7.967-7.967a23.454,23.454,0,0,1,3.282,1.7L270.963,29.04Zm0,13.186V32.156L284.1,19.022a23.681,23.681,0,0,1,2.638,2.347L276.529,31.574a1.1,1.1,0,1,0,1.558,1.558l10.108-10.108a23.59,23.59,0,0,1,2.024,2.961L274.965,41.239Zm5.56,5.56,14.753-14.753a23.3,23.3,0,0,1,1.306,3.679L279.015,45.289Zm10.71,10.71L284.622,50.9l8.2-8.2A23.288,23.288,0,0,1,287.233,53.507Zm6.039-14.377L283.064,49.338l-2.491-2.491,12.535-12.535a23.583,23.583,0,0,1,.244,3.382c0,.47-.015.937-.042,1.4C293.3,39.107,293.284,39.118,293.272,39.13Z" transform="translate(-268.76 -12)"/>
        </g>
      </g>
      <g id="Group_2749" data-name="Group 2749" transform="translate(0 14.371)">
        <g id="Group_2748" data-name="Group 2748">
          <path id="Path_2135" data-name="Path 2135" class="cls-2" d="M43.862,75.825,26.8,58.758V34.623a1.1,1.1,0,0,0-1.1-1.1A25.694,25.694,0,1,0,43.862,77.383,1.1,1.1,0,0,0,43.862,75.825Zm-18.168,6.88a23.491,23.491,0,0,1-1.1-46.955V59.215a1.1,1.1,0,0,0,.03.252h0l5.364,22.849A23.759,23.759,0,0,1,25.694,82.705Zm6.437-.888L27.65,62.729,41.507,76.586A23.311,23.311,0,0,1,32.131,81.817Z" transform="translate(0 -33.521)"/>
        </g>
      </g>
      <g id="Group_2751" data-name="Group 2751" transform="translate(34.124 34.181)">
        <g id="Group_2750" data-name="Group 2750">
          <path id="Path_2136" data-name="Path 2136" class="cls-2" d="M311.65,213.673a1.1,1.1,0,1,0,.323.779A1.11,1.11,0,0,0,311.65,213.673Z" transform="translate(-309.77 -213.35)"/>
        </g>
      </g>
      <g id="Group_2753" data-name="Group 2753" transform="translate(5.233 38.927)">
        <g id="Group_2752" data-name="Group 2752">
          <path id="Path_2137" data-name="Path 2137" class="cls-2" d="M48.608,256.438H48.6a1.1,1.1,0,0,0-1.1,1.1v.041a1.1,1.1,0,1,0,2.2,0v-.03A1.1,1.1,0,0,0,48.608,256.438Z" transform="translate(-47.501 -256.438)"/>
        </g>
      </g>
      <g id="Group_2755" data-name="Group 2755" transform="translate(5.811 22.13)">
        <g id="Group_2754" data-name="Group 2754">
          <path id="Path_2138" data-name="Path 2138" class="cls-2" d="M64.021,104.511a1.1,1.1,0,0,0-1.5-.412A20.564,20.564,0,0,0,52.785,116.9a1.1,1.1,0,1,0,2.137.535,18.351,18.351,0,0,1,8.688-11.426A1.1,1.1,0,0,0,64.021,104.511Z" transform="translate(-52.751 -103.955)"/>
        </g>
      </g>
    </g>
  </g>
</svg>
