<svg xmlns="http://www.w3.org/2000/svg" width="12" height="12" viewBox="0 0 12 12">
    <path fill="#2A90FF" fill-rule="evenodd" d="M12 8.984v1.807a1.203 1.203 0 0 1-1.316 1.204 11.956 11.956 0 0 1-5.207-1.849 11.754 11.754 0 0 1-3.62-3.612A11.902 11.902 0 0 1 .005 1.313 1.203 1.203 0 0 1 1.205 0h1.81a1.206 1.206 0 0 1 1.207 1.036 7.72 7.72 0 0 0 .423 1.692c.165.44.06.936-.272 1.27l-.766.765a9.644 9.644 0 0 0 3.62 3.613l.766-.765c.335-.33.832-.436 1.273-.27a7.76 7.76 0 0 0 1.696.42A1.205 1.205 0 0 1 12 8.985z"/>
</svg>
